<svg height="682pt" viewBox="-21 -21 682 682.66669" width="682pt" xmlns="http://www.w3.org/2000/svg"><path  fill="#ccc" d="m633.289062 600.527344c-56.917968-63.488282-163.640624-83.511719-251.566406-63.199219-5.082031 1.171875-8.257812 6.257813-7.085937 11.347656 1.1875 5.078125 6.265625 8.257813 11.347656 7.070313 80.828125-18.65625 180.839844-1.015625 233.222656 57.402344 2.808594 3.15625.445313 7.941406-3.617187 7.941406h-265.425782c.066407-5.183594-2.316406-10.199219-6.816406-13.878906-9.164062-7.515626-19.96875-14.261719-32.109375-20.175782 11.941407-7.9375 25.363281-14.871094 39.9375-20.570312 4.867188-1.902344 7.277344-7.386719 5.371094-12.253906-1.902344-4.855469-7.386719-7.261719-12.253906-5.359376-19.957031 7.804688-38.023438 17.804688-53.476563 29.527344-19.136718-7.085937-40.605468-12.34375-63.503906-15.523437v-100.128907h20.515625v24.347657c0 5.226562 4.230469 9.457031 9.457031 9.457031 5.21875 0 9.453125-4.230469 9.453125-9.457031v-24.398438c10.320313-.332031 19.921875-3.566406 28.007813-8.917969 18.257812 17.097657 19.1875 21.941407 25.855468 21.941407 8.347657 0 12.65625-10.167969 6.683594-16.144531l-18.8125-18.8125c5.78125-7.808594 9.503906-17.226563 10.378906-27.441407h21.847657c5.222656 0 9.457031-4.234375 9.457031-9.453125 0-5.222656-4.234375-9.457031-9.457031-9.457031h-21.632813v-31.050781h21.632813c5.222656 0 9.457031-4.234375 9.457031-9.453125 0-5.222657-4.234375-9.457031-9.457031-9.457031h-21.632813v-1.898438c0-13.421875-8.765625-24.8125-20.859375-28.789062v-25.640626c0-5.226562-4.226562-9.460937-9.453125-9.460937-5.222656 0-9.453125 4.234375-9.453125 9.460937v25.640626c-12.09375 3.984374-20.847656 15.375-20.847656 28.789062v59.578125h-31.140625v-98.941406c0-5.21875-4.230469-9.453125-9.453125-9.453125-5.21875 0-9.457031 4.234375-9.457031 9.453125v257.558593c-23.953125-2.058593-48.804688-1.875-72.839844.621094 0-17.371094 0-480.015625 0-506.015625 0-20.082031 16.335938-36.421875 36.417969-36.421875 20.085937 0 36.421875 16.339844 36.421875 36.421875v210.019531c0 5.214844 4.238281 9.453126 9.457031 9.453126 5.222656 0 9.453125-4.238282 9.453125-9.453126v-64.953124h20.515625v24.230468c0 5.222656 4.230469 9.457032 9.457031 9.457032 5.21875 0 9.453125-4.234376 9.453125-9.457032v-24.277344c10.351563-.332031 19.980469-3.585937 28.082031-8.964843 18.144532 16.980469 19.121094 21.863281 25.78125 21.863281 8.347657 0 12.660157-10.164062 6.6875-16.136719l-18.769531-18.769531c5.777344-7.828125 9.484375-17.253906 10.34375-27.488281h21.835938c5.222656 0 9.457031-4.234375 9.457031-9.457031 0-5.222657-4.234375-9.453126-9.457031-9.453126h-21.632813v-31.050781h21.632813c5.222656 0 9.457031-4.234375 9.457031-9.453125 0-5.226562-4.234375-9.457031-9.457031-9.457031h-21.632813v-1.792969c0-13.402344-8.765625-24.804687-20.859375-28.789062v-25.746094c0-5.222656-4.226562-9.453125-9.453125-9.453125-5.222656 0-9.453125 4.230469-9.453125 9.453125v25.75c-12.09375 3.984375-20.847656 15.386719-20.847656 28.789062v59.589844h-31.140625v-84.453125c0-30.507812-24.824219-55.332031-55.332031-55.332031-30.507813 0-55.332031 24.824219-55.332031 55.332031v214.492188h-22.792969v-59.582031c0-14.09375-9.667969-25.96875-22.722657-29.34375v-25.199219c0-5.226563-4.234374-9.457031-9.453124-9.457031-5.226563 0-9.457032 4.230468-9.457032 9.457031v26.445312c-20.652344 8.355469-18.925781 29.710938-18.976562 29.882813h-23.515625c-5.222657 0-9.453125 4.230468-9.453125 9.453125 0 5.222656 4.230468 9.457031 9.453125 9.457031h23.511719v31.050781h-23.511719c-5.222657 0-9.453125 4.230469-9.453125 9.453125s4.230468 9.457032 9.453125 9.457032h23.714843c.820313 9.757812 4.234376 18.785156 9.5625 26.390624l-19.863281 19.863282c-5.976562 5.976562-1.660156 16.144531 6.683594 16.144531 6.722656 0 8.226563-5.449219 26.554687-22.632813 7.839844 5.492188 17.195313 8.960938 27.308594 9.640626v24.375c0 5.21875 4.234375 9.453124 9.453125 9.453124 5.222657 0 9.457031-4.234374 9.457031-9.453124v-24.242188h14.046876v233.367188c-44.816407 7.085937-83.734376 22.242187-109.5625 43.40625-14.304688 11.714843-4.78125 32.789062 15.792968 32.789062h592.710938c13.101562 0 23.75-10.679688 23.75-23.804688.003906-5.761718-2.152344-11.316406-6.050782-15.667968zm-405.976562-179.507813h37.65625c6.832031 0 12.394531-5.558593 12.394531-12.382812v-66.105469c0-5.9375 4.550781-10.816406 10.347657-11.34375.746093.078125 1.367187.078125 2.082031 0 5.796875.527344 10.363281 5.40625 10.363281 11.34375 0 4.347656 0 67.035156 0 66.105469 0 19.390625-15.785156 35.175781-35.1875 35.175781h-37.65625zm0-262.324219h37.65625c6.832031 0 12.394531-5.5625 12.394531-12.390624v-66.113282c0-6.265625 5.082031-11.367187 11.351563-11.394531h.078125c6.265625.023437 11.363281 5.128906 11.363281 11.398437v66.109376c0 19.402343-15.78125 35.183593-35.1875 35.183593-13.847656 0-25.058594 0-37.65625 0zm-139.972656 152.832032c-19.402344 0-35.1875-15.785156-35.1875-35.167969v-66.117187c0-6.289063 5.117187-11.394532 11.398437-11.394532 6.292969 0 11.394531 5.105469 11.394531 11.394532v66.117187c0 6.8125 5.5625 12.375 12.394532 12.375h29.308594v22.792969zm-66.90625 309.210937c73.265625-58.125 240.707031-54.628906 309.5625 0-1.558594.507813-307.605469.636719-309.5625 0zm0 0"/><path  fill="#ccc" d="m177.527344 55.507812c0 7.21875-5.851563 13.066407-13.070313 13.066407-7.222656 0-13.070312-5.847657-13.070312-13.066407 0-7.222656 5.847656-13.070312 13.070312-13.070312 7.21875 0 13.070313 5.847656 13.070313 13.070312zm0 0"/><path  fill="#ccc" d="m195.472656 104.507812c0 7.21875-5.855468 13.070313-13.070312 13.070313-7.21875 0-13.070313-5.851563-13.070313-13.070313s5.851563-13.070312 13.070313-13.070312c7.214844 0 13.070312 5.851562 13.070312 13.070312zm0 0"/><path  fill="#ccc" d="m173.941406 231.390625c0 7.21875-5.851562 13.070313-13.074218 13.070313-7.214844 0-13.070313-5.851563-13.070313-13.070313s5.855469-13.070313 13.070313-13.070313c7.222656 0 13.074218 5.851563 13.074218 13.070313zm0 0"/><path  fill="#ccc" d="m200.082031 277.554688c0 7.214843-5.855469 13.070312-13.070312 13.070312-7.222657 0-13.070313-5.855469-13.070313-13.070312 0-7.222657 5.847656-13.070313 13.070313-13.070313 7.214843 0 13.070312 5.847656 13.070312 13.070313zm0 0"/><path  fill="#ccc" d="m173.941406 362.015625c0 7.222656-5.851562 13.070313-13.074218 13.070313-7.214844 0-13.070313-5.847657-13.070313-13.070313 0-7.214844 5.855469-13.066406 13.070313-13.066406 7.222656 0 13.074218 5.851562 13.074218 13.066406zm0 0"/><path  fill="#ccc" d="m195.472656 435.765625c0 7.222656-5.855468 13.070313-13.070312 13.070313-7.21875 0-13.070313-5.847657-13.070313-13.070313 0-7.214844 5.851563-13.066406 13.070313-13.066406 7.214844 0 13.070312 5.851562 13.070312 13.066406zm0 0"/><path  fill="#ccc" d="m182.402344 498.171875c0 7.21875-5.855469 13.074219-13.070313 13.074219-7.21875 0-13.074219-5.855469-13.074219-13.074219s5.855469-13.070313 13.074219-13.070313c7.214844 0 13.070313 5.851563 13.070313 13.070313zm0 0"/><path  fill="#ccc" d="m425.800781 136.460938c0 42.503906 34.578125 77.078124 77.078125 77.078124 58.886719 0 95.714844-63.546874 67.417969-114.46875-2.535156-4.5625-8.289063-6.203124-12.855469-3.671874-4.5625 2.535156-6.207031 8.292968-3.671875 12.859374 21.246094 38.234376-6.285156 86.371094-50.882812 86.371094-32.078125 0-58.175781-26.09375-58.175781-58.167968 0-44.433594 47.945312-72.203126 86.332031-50.910157 4.566406 2.535157 10.324219.886719 12.851562-3.679687 2.535157-4.570313.886719-10.324219-3.679687-12.855469-50.78125-28.164063-114.414063 8.464844-114.414063 67.445313zm0 0"/><path  fill="#ccc" d="m502.878906 49.648438c5.226563 0 9.453125-4.226563 9.453125-9.453126v-30.742187c0-5.21875-4.226562-9.453125-9.453125-9.453125-5.222656 0-9.453125 4.234375-9.453125 9.453125v30.742187c0 5.226563 4.234375 9.453126 9.453125 9.453126zm0 0"/><path  fill="#ccc" d="m446.5625 57.820312c1.753906 3.035157 4.925781 4.726563 8.191406 4.726563 7.199219 0 11.84375-7.84375 8.183594-14.183594l-15.371094-26.621093c-2.609375-4.519532-8.398437-6.070313-12.914062-3.460938-4.527344 2.613281-6.074219 8.394531-3.460938 12.914062zm0 0"/><path  fill="#ccc" d="m388.164062 81.148438c26.855469 15.023437 26.917969 16.632812 31.335938 16.632812 9.65625 0 13.09375-12.820312 4.738281-17.640625l-26.621093-15.371094c-4.527344-2.613281-10.308594-1.0625-12.914063 3.457031-2.613281 4.527344-1.0625 10.308594 3.460937 12.921876zm0 0"/><path  fill="#ccc" d="m375.875 145.917969h30.742188c5.21875 0 9.453124-4.234375 9.453124-9.457031 0-5.21875-4.234374-9.453126-9.453124-9.453126h-30.742188c-5.226562 0-9.453125 4.234376-9.453125 9.453126 0 5.222656 4.230469 9.457031 9.453125 9.457031zm0 0"/><path  fill="#ccc" d="m414.785156 176.40625-26.621094 15.371094c-8.355468 4.824218-4.90625 17.644531 4.734376 17.644531 4.421874 0 4.46875-1.605469 31.339843-16.640625 4.527344-2.609375 6.074219-8.390625 3.460938-12.914062-2.613281-4.523438-8.398438-6.074219-12.914063-3.460938zm0 0"/><path  fill="#ccc" d="m446.5625 215.101562-15.371094 26.621094c-3.65625 6.332032.976563 14.183594 8.179688 14.183594 3.265625 0 6.445312-1.691406 8.195312-4.726562l15.371094-26.617188c2.609375-4.527344 1.0625-10.308594-3.460938-12.921875-4.519531-2.613281-10.308593-1.058594-12.914062 3.460937zm0 0"/><path  fill="#ccc" d="m493.425781 232.730469v30.738281c0 5.222656 4.230469 9.457031 9.453125 9.457031 5.226563 0 9.453125-4.234375 9.453125-9.457031v-30.738281c0-5.226563-4.226562-9.457031-9.453125-9.457031-5.222656 0-9.453125 4.230468-9.453125 9.457031zm0 0"/><path  fill="#ccc" d="m546.289062 211.640625c-4.523437 2.613281-6.074218 8.394531-3.460937 12.921875l15.371094 26.617188c1.746093 3.035156 4.925781 4.726562 8.191406 4.726562 7.199219 0 11.839844-7.839844 8.179687-14.183594l-15.367187-26.621094c-2.613281-4.519531-8.394531-6.070312-12.914063-3.460937zm0 0"/><path  fill="#ccc" d="m590.976562 176.40625c-4.527343-2.613281-10.308593-1.058594-12.914062 3.460938-2.613281 4.523437-1.0625 10.304687 3.460938 12.914062 26.855468 15.03125 26.917968 16.640625 31.335937 16.640625 9.65625 0 13.09375-12.824219 4.738281-17.644531zm0 0"/><path  fill="#ccc" d="m589.691406 136.460938c0 5.222656 4.234375 9.457031 9.457032 9.457031h30.738281c5.226562 0 9.457031-4.234375 9.457031-9.457031 0-5.21875-4.230469-9.453126-9.457031-9.453126h-30.738281c-5.222657 0-9.457032 4.234376-9.457032 9.453126zm0 0"/><path  fill="#ccc" d="m590.976562 96.519531 26.621094-15.371093c4.527344-2.613282 6.074219-8.394532 3.460938-12.914063-2.605469-4.523437-8.394532-6.078125-12.914063-3.464844l-26.621093 15.371094c-4.523438 2.609375-6.074219 8.394531-3.460938 12.914063 2.621094 4.542968 8.417969 6.0625 12.914062 3.464843zm0 0"/><path  fill="#ccc" d="m551.003906 62.546875c3.269532 0 6.445313-1.691406 8.199219-4.726563l15.367187-26.617187c2.613282-4.523437 1.0625-10.308594-3.457031-12.917969-4.527343-2.613281-10.308593-1.0625-12.914062 3.457032l-15.371094 26.621093c-3.660156 6.332031.976563 14.183594 8.175781 14.183594zm0 0"/></svg>