<?xml version="1.0" encoding="utf-8"?><svg height="512" viewBox="0 0 64 64" width="512" xmlns="http://www.w3.org/2000/svg"><g id="Space_Capsule" data-name="Space Capsule"><path d="m32 2a21.024 21.024 0 0 0 -21 21 1 1 0 0 0 .21.614l13.79 17.73v2.656a1 1 0 0 0 -.895.553l-5 10a1 1 0 0 0 -.105.447v4a3 3 0 0 0 3 3h20a3 3 0 0 0 3-3v-4a1 1 0 0 0 -.1-.447l-5-10a1 1 0 0 0 -.9-.553v-2.656l13.79-17.73a1 1 0 0 0 .21-.614 21.024 21.024 0 0 0 -21-21zm0 2a19.02 19.02 0 0 1 18.488 14.689 4.913 4.913 0 0 0 -6.488 1.342 4.954 4.954 0 0 0 -8 0 4.955 4.955 0 0 0 -8 0 4.956 4.956 0 0 0 -8 0 4.927 4.927 0 0 0 -6.494-1.335 19.02 19.02 0 0 1 18.494-14.696zm-1 40v-2h2v2zm-2.35-4-7.632-17.173a2.993 2.993 0 0 1 5.982.173 1 1 0 0 0 .006.11l1.877 16.89zm4.45 0h-2.2l-1.9-17.028a3 3 0 0 1 6-.024zm2.012 0 1.877-16.89a1 1 0 0 0 .011-.11 3 3 0 0 1 5.994-.2l-7.644 17.2zm-19.112-20a3 3 0 0 1 3 3 1 1 0 0 0 .086.406l7.338 16.51-13.407-17.237a3 3 0 0 1 2.983-2.679zm11 22h2v2h-2zm15 18h-20a1 1 0 0 1 -1-1v-3h22v3a1 1 0 0 1 -1 1zm-6-6h-8v-4h8zm6.382 0h-4.382v-5a1 1 0 0 0 -1-1h-10a1 1 0 0 0 -1 1v5h-4.382l4-8h12.764zm-7.382-10v-2h2v2zm2.576-4.084 7.338-16.51a1 1 0 0 0 .086-.406 3 3 0 0 1 5.983-.321z"/><path d="m54 36h2v14h-2z"/><path d="m54 32h2v2h-2z"/><path d="m54 28h2v2h-2z"/><path d="m60 24h2v20h-2z"/><path d="m60 20h2v2h-2z"/><path d="m60 16h2v2h-2z"/><path d="m60 12h2v2h-2z"/><path d="m8 36h2v14h-2z"/><path d="m8 32h2v2h-2z"/><path d="m8 28h2v2h-2z"/><path d="m2 24h2v20h-2z"/><path d="m2 20h2v2h-2z"/><path d="m2 16h2v2h-2z"/><path d="m2 12h2v2h-2z"/></g></svg>