<?xml version="1.0" encoding="utf-8"?><svg xmlns="http://www.w3.org/2000/svg" viewBox="0 0 64 64" width="512" height="512"><g id="Spaceship-game"><path d="M52,39.9V36a1,1,0,0,0-1-1V30a1,1,0,0,0-1-1H47a1,1,0,0,0-1,1v5a1,1,0,0,0-1,1v1.34q-.555-.12-1.14-.24l-.87-5.26A1,1,0,0,0,42,31H40.94a9,9,0,0,0-17.88,0H22a1,1,0,0,0-.99.84l-.87,5.26q-.585.12-1.14.24V36a1,1,0,0,0-1-1V30a1,1,0,0,0-1-1H14a1,1,0,0,0-1,1v5a1,1,0,0,0-1,1v3.9c-1.88,1.13-3,2.5-3,4.1,0,2.18,2.1,3.94,5.35,5.25l.66,5.86A.989.989,0,0,0,16,56h.16c.71,2.36,3.52,5.13,4.15,5.73a1.017,1.017,0,0,0,1.38,0c.63-.6,3.44-3.37,4.15-5.73H26a.989.989,0,0,0,.99-.89l.37-3.27c1.54.1,3.09.16,4.64.16s3.1-.06,4.64-.16l.37,3.27A.989.989,0,0,0,38,56h.16c.71,2.36,3.52,5.13,4.15,5.73a1.017,1.017,0,0,0,1.38,0c.63-.6,3.44-3.37,4.15-5.73H48a.989.989,0,0,0,.99-.89l.66-5.86C52.9,47.94,55,46.18,55,44,55,42.4,53.88,41.03,52,39.9ZM48,31h1v4H48Zm-1,6h3v1.89a27.58,27.58,0,0,0-3-1.04ZM32,25a7,7,0,0,1,6.92,6H25.08A7,7,0,0,1,32,25Zm-9.15,8h18.3l.62,3.73a65.744,65.744,0,0,0-19.54,0ZM35,38.07V43H29V38.07c.97-.04,1.96-.07,3-.07S34.03,38.03,35,38.07ZM15,31h1v4H15Zm-1,6h3v.85a27.58,27.58,0,0,0-3,1.04Zm13,1.19V43H11.39C12.86,41.02,18.46,38.82,27,38.19Zm-6,21.4A16.519,16.519,0,0,1,18.29,56H20v1h2V56h1.7A16.37,16.37,0,0,1,21,59.59ZM25.11,54H16.89l-.44-4.01a47.989,47.989,0,0,0,8.92,1.68ZM43,59.59A16.519,16.519,0,0,1,40.29,56H42v1h2V56h1.7A16.37,16.37,0,0,1,43,59.59ZM47.11,54H38.89l-.26-2.33a47.989,47.989,0,0,0,8.92-1.68ZM32,50c-11.35,0-18.87-2.66-20.61-5H52.61C50.87,47.34,43.35,50,32,50Zm5-7V38.19c8.54.63,14.14,2.83,15.61,4.81Z"/><rect x="28" y="27" width="2" height="2"/><path d="M15.5,24a1,1,0,0,0,.78-.375c.638-.8,2.72-3.518,2.72-5.125a3.5,3.5,0,0,0-7,0c0,1.607,2.082,4.33,2.72,5.125A1,1,0,0,0,15.5,24Zm0-7A1.5,1.5,0,0,1,17,18.5a8.247,8.247,0,0,1-1.5,2.832A8.4,8.4,0,0,1,14,18.5,1.5,1.5,0,0,1,15.5,17Z"/><path d="M23.5,11a1,1,0,0,0,.78-.375C24.918,9.83,27,7.107,27,5.5a3.5,3.5,0,0,0-7,0c0,1.607,2.082,4.33,2.72,5.125A1,1,0,0,0,23.5,11Zm0-7A1.5,1.5,0,0,1,25,5.5a8.247,8.247,0,0,1-1.5,2.832A8.4,8.4,0,0,1,22,5.5,1.5,1.5,0,0,1,23.5,4Z"/><path d="M48.5,21a1,1,0,0,0,.78-.375c.638-.8,2.72-3.518,2.72-5.125a3.5,3.5,0,0,0-7,0c0,1.607,2.082,4.33,2.72,5.125A1,1,0,0,0,48.5,21Zm0-7A1.5,1.5,0,0,1,50,15.5a8.247,8.247,0,0,1-1.5,2.832A8.4,8.4,0,0,1,47,15.5,1.5,1.5,0,0,1,48.5,14Z"/><path d="M37.5,16a1,1,0,0,0,.78-.375C38.918,14.83,41,12.107,41,10.5a3.5,3.5,0,0,0-7,0c0,1.607,2.082,4.33,2.72,5.125A1,1,0,0,0,37.5,16Zm0-7A1.5,1.5,0,0,1,39,10.5a8.247,8.247,0,0,1-1.5,2.832A8.4,8.4,0,0,1,36,10.5,1.5,1.5,0,0,1,37.5,9Z"/></g></svg>
