<?xml version="1.0" encoding="utf-8"?><svg xmlns="http://www.w3.org/2000/svg" viewBox="0 0 64 64" width="512" height="512"><g id="Rocket_Launch" data-name="Rocket Launch"><path d="M9.443,23h4.022l1.7,2.555A1,1,0,0,0,16,26h6a1,1,0,0,0,.832-.445L24.535,23h4.022a2,2,0,0,0,1.873-2.7l-1.52-4.053A5.029,5.029,0,0,0,25,13.061V9.185a4.944,4.944,0,0,0-.861-2.806C21.144,2,19.53,2,19,2s-2.144,0-5.139,4.378A4.949,4.949,0,0,0,13,9.185v3.876a5.029,5.029,0,0,0-3.91,3.184L7.57,20.3A2,2,0,0,0,9.443,23Zm12.022,1h-4.93l-.667-1h6.264Zm5.572-7.053L28.557,21H25V15.11A3.011,3.011,0,0,1,27.037,16.947ZM15,9.185a2.959,2.959,0,0,1,.511-1.677C17.41,4.733,18.624,4,19,4s1.59.733,3.489,3.508A2.959,2.959,0,0,1,23,9.185V21H15Zm-4.037,7.762A3.011,3.011,0,0,1,13,15.11V21H9.443Z"/><path d="M19,28a4,4,0,0,0-4,4c0,2.06,1.558,6,4,6s4-3.94,4-6A4,4,0,0,0,19,28Zm0,8c-.748,0-2-2.505-2-4a2,2,0,0,1,4,0C21,33.495,19.748,36,19,36Z"/><path d="M61,60V33a1,1,0,0,0-1-1H58V25H56v7H54a1,1,0,0,0-1,1V60H51V21a1,1,0,0,0-1-1H49V17H47v3H45V13.816a3,3,0,1,0-2,0V20H41V17H39v3H38a1,1,0,0,0-1,1V60H33v-.813a5.995,5.995,0,0,0-1.045-10.862,5,5,0,0,0-2.467-3.651A2.98,2.98,0,0,0,30,43a3.018,3.018,0,0,0-3.169-2.995A3,3,0,0,0,21,41h2a1,1,0,0,1,2,0,1.253,1.253,0,0,1-.014.167,1,1,0,0,0,1.508.971A.974.974,0,0,1,27,42a1,1,0,0,1,0,2,5.006,5.006,0,0,0-5,5h2a3,3,0,0,1,6,0v.1a1,1,0,0,0,.8.981A4,4,0,0,1,33,56.643V56a1,1,0,0,0-1-1H6a1,1,0,0,0-1,1v.644a4,4,0,0,1,2.2-6.563A1,1,0,0,0,8,49.1V49a3,3,0,0,1,6,0h2a5.006,5.006,0,0,0-5-5,1,1,0,0,1,0-2,.974.974,0,0,1,.506.138,1,1,0,0,0,1.508-.971A1.253,1.253,0,0,1,13,41a1,1,0,0,1,2,0h2a3,3,0,0,0-5.831-.995A3.023,3.023,0,0,0,8,43a2.98,2.98,0,0,0,.512,1.674,5,5,0,0,0-2.467,3.651A5.995,5.995,0,0,0,5,59.187V60H2v2H62V60ZM44,10a1,1,0,1,1-1,1A1,1,0,0,1,44,10ZM59,40H55V38h4Zm0,2v2H55V42Zm0,4v2H55V46Zm0,4v2H55V50Zm0,4v2H55V54Zm0-20v2H55V34ZM49,35.132,41.3,30H49Zm0,8L41.3,38H49Zm0,8L41.3,46H49Zm0-24L41.3,22H49ZM46.7,28H39V22.868Zm0,8H39V30.868Zm0,8H39V38.868Zm0,8H39V46.868ZM49,54v5.132L41.3,54ZM7,57H31v3H7Zm32-2.132L46.7,60H39ZM55,60V58h4v2Z"/><path d="M19,6a3,3,0,1,0,3,3A3,3,0,0,0,19,6Zm0,4a1,1,0,1,1,1-1A1,1,0,0,1,19,10Z"/><polygon points="57 8 59 8 59 6 61 6 61 4 59 4 59 2 57 2 57 4 55 4 55 6 57 6 57 8"/><rect x="56" y="13" width="2" height="2"/><rect x="4" y="6" width="2" height="2"/><rect x="7" y="29" width="2" height="2"/><rect x="29" y="29" width="2" height="2"/></g></svg>
