<?xml version="1.0" encoding="utf-8"?><svg height="512" viewBox="0 0 64 64" width="512" xmlns="http://www.w3.org/2000/svg"><g id="Space_Rocket" data-name="Space Rocket"><path d="m5 45a3 3 0 1 0 3 3 3 3 0 0 0 -3-3zm0 4a1 1 0 1 1 1-1 1 1 0 0 1 -1 1z"/><path d="m49 18a3 3 0 1 0 -3-3 3 3 0 0 0 3 3zm0-4a1 1 0 1 1 -1 1 1 1 0 0 1 1-1z"/><path d="m56 8h2v-2h2v-2h-2v-2h-2v2h-2v2h2z"/><path d="m47 29h2v-2h2v-2h-2v-2h-2v2h-2v2h2z"/><path d="m29 48h-2v2h-2v2h2v2h2v-2h2v-2h-2z"/><path d="m15 4h2v2h-2z"/><path d="m2 9h2v2h-2z"/><path d="m25 60h2v2h-2z"/><path d="m18 42h2v2h-2z"/><path d="m11 57h2v2h-2z"/><path d="m60.293 54.636a4.1 4.1 0 0 0 -5.657 0 4 4 0 0 0 0 5.657 8.213 8.213 0 0 0 5.045 2.145 2.77 2.77 0 0 0 2.026-.731c1.727-1.727.043-5.614-1.414-7.071zm0 5.657c-.531.527-3.186-.357-4.243-1.414a2 2 0 1 1 2.829-2.829c1.057 1.058 1.943 3.714 1.414 4.243z"/><path d="m43.322 39.079a3 3 0 1 0 0 4.243 3 3 0 0 0 0-4.243zm-1.414 2.829a1 1 0 1 1 0-1.414 1 1 0 0 1 0 1.414z"/><path d="m55.617 50.2-.6-3.01 2.844-2.844a2 2 0 0 0 -.586-3.235l-3.941-1.792a5.029 5.029 0 0 0 -5.016.514l-2.741-2.741a4.949 4.949 0 0 0 -2.593-1.376c-5.212-.976-6.355.163-6.73.538s-1.515 1.516-.538 6.73a4.949 4.949 0 0 0 1.376 2.593l2.741 2.741a5.031 5.031 0 0 0 -.514 5.016l1.792 3.941a2 2 0 0 0 1.464 1.14 1.958 1.958 0 0 0 .357.032 2 2 0 0 0 1.414-.586l2.844-2.844 3.01.6a1.011 1.011 0 0 0 .2.019 1 1 0 0 0 .707-.293l4.236-4.243a1 1 0 0 0 .274-.9zm-3.117-9.063 3.941 1.792-2.515 2.515-4.165-4.165a3.014 3.014 0 0 1 2.739-.142zm-14.821 1.476c-.619-3.3-.28-4.681-.013-4.947a2.942 2.942 0 0 1 1.764-.336 17.621 17.621 0 0 1 3.183.349 2.953 2.953 0 0 1 1.547.824l8.355 8.355-5.657 5.657-8.358-8.355a2.953 2.953 0 0 1 -.821-1.547zm5.249 13.831-1.791-3.944a3.013 3.013 0 0 1 .141-2.74l4.166 4.166zm7.137-2.893-1.179-.236 4.429-4.429.236 1.179z"/><path d="m36.7 19.089c7.466-9.669 5.7-13.466 3.69-15.476s-5.809-3.775-15.479 3.687a15.405 15.405 0 0 0 -2.911-.3 15.017 15.017 0 0 0 -15 15 15.393 15.393 0 0 0 .3 2.911c-7.463 9.669-5.7 13.466-3.687 15.476a5.556 5.556 0 0 0 4.134 1.754c2.444 0 6-1.312 11.347-5.443a15.443 15.443 0 0 0 2.906.302 15.017 15.017 0 0 0 15-15 15.405 15.405 0 0 0 -.3-2.911zm-2.9-6.334a15.154 15.154 0 0 0 -2.55-2.55c3.012-2.022 4.464-2.383 4.877-2.327.048.414-.312 1.866-2.327 4.877zm-4.822-1.721a13.066 13.066 0 0 1 3.6 3.445 89.494 89.494 0 0 1 -8.451 9.644 89.494 89.494 0 0 1 -9.644 8.451 13.057 13.057 0 0 1 -3.447-3.6c-.206-.322-.4-.654-.572-.993a18 18 0 0 0 17.513-17.521c.34.177.673.367.996.574zm-6.443-2a13.592 13.592 0 0 1 2.409.3c.355.084.7.183 1.047.294 0 .125.014.246.014.373a16.019 16.019 0 0 1 -16.005 15.999c-.127 0-.249-.011-.373-.014q-.165-.51-.292-1.036a13.625 13.625 0 0 1 -.305-2.42 18 18 0 0 0 13.5-13.5zm-12.33 22.211a15.117 15.117 0 0 0 2.55 2.55c-3.012 2.023-4.464 2.388-4.877 2.327-.053-.414.307-1.866 2.327-4.877zm10.26-22.145a16.015 16.015 0 0 1 -11.365 11.365 13.013 13.013 0 0 1 11.365-11.365zm-15.438 29.873c-.815-.815-3.2-3.209 2.962-11.654a14.78 14.78 0 0 0 1.016 2.141c-3.913 5.594-3.354 7.306-2.562 8.1a1.947 1.947 0 0 0 1.474.574c1.249 0 3.362-.78 7.157-3.509a89.415 89.415 0 0 0 10.463-9.085 89.415 89.415 0 0 0 9.085-10.463c4.336-6.032 3.752-7.815 2.935-8.631-.79-.79-2.5-1.35-8.1 2.562a14.742 14.742 0 0 0 -2.142-1.016c8.447-6.16 10.84-3.776 11.655-2.962.862.863 3.487 3.488-4.119 13.184a101.482 101.482 0 0 1 -7.9 8.742 101.785 101.785 0 0 1 -8.74 7.9c-9.696 7.604-12.32 4.98-13.184 4.117zm16.973-3.973c-.25 0-.5-.028-.757-.043 2.206-1.855 4.59-4.055 7.124-6.59s4.735-4.918 6.59-7.124c.015.252.043.507.043.757a13.015 13.015 0 0 1 -13 13z"/></g></svg>